<mxfile host="65bd71144e">
    <diagram id="fOz8Y2p1AzLeUpiFMv1y" name="Page-1">
        <mxGraphModel dx="1626" dy="692" grid="1" gridSize="10" guides="1" tooltips="1" connect="1" arrows="1" fold="1" page="1" pageScale="1" pageWidth="827" pageHeight="1169" math="0" shadow="0">
            <root>
                <mxCell id="0"/>
                <mxCell id="1" parent="0"/>
                <mxCell id="2" value="http://ics2o.mths.ca" style="swimlane;whiteSpace=wrap;html=1;" vertex="1" parent="1">
                    <mxGeometry x="70" y="140" width="690" height="480" as="geometry">
                        <mxRectangle x="100" y="150" width="150" height="30" as="alternateBounds"/>
                    </mxGeometry>
                </mxCell>
                <mxCell id="3" value="Game end" style="text;html=1;align=center;verticalAlign=middle;resizable=0;points=[];autosize=1;strokeColor=none;fillColor=none;" vertex="1" parent="2">
                    <mxGeometry x="55" y="50" width="80" height="30" as="geometry"/>
                </mxCell>
                <mxCell id="5" value="Click button to play again or click other button to go back to menu&amp;nbsp;" style="text;html=1;align=center;verticalAlign=middle;resizable=0;points=[];autosize=1;strokeColor=none;fillColor=none;" vertex="1" parent="2">
                    <mxGeometry x="55" y="100" width="380" height="30" as="geometry"/>
                </mxCell>
                <mxCell id="6" value="" style="shape=image;verticalLabelPosition=bottom;labelBackgroundColor=default;verticalAlign=top;aspect=fixed;imageAspect=0;image=data:image/png,iVBORw0KGgoAAAANSUhEUgAAAO4AAADUCAMAAACs0e/bAAAAkFBMVEX///+ZAACVAACRAACQAAD79vb9+vr06ens2tru3t7w4uL58/Pix8fn0dH48PD16+vVra25b2/Dh4evVlbev7/Ys7PIkpKzYWHRpaW8dnarSkrBgoLJlJTNnJy/fX3lzMykNja2Z2euU1OrS0uhKirTqammPT2fIiKdGhqjMjKbDQ2gJibPoKCoQ0OcExOxXFzBbfFZAAAaH0lEQVR4nO0952LyPK/EDntDwiij7FVo7//uTrzllUAItM93Xv1qAzGWLWtLLpX+g/95mJ4rvz2Fd8Fu0BhgNPztabwLQoRREODot+fxJsABg9+ex5vgzLBFg9+eyHtgiRi+YeO3Z/IWiDi6weq3Z/IeEIcXLX57Jm+Bvtje/x/k3BbbG5x+eypvgZ1AF/V/eyrvgEhuL+799lzeAUeBbhDWfnsub4CW3N4AlX97Mm+ArUQ32P32XN4A1VBt789vT+YNMEIK3+VvT+YNoLhVgHNrV5V6kVN6JdQVOQfh/vH3q+FuMsDhZ/Ezew0sEMA3fvj1OQpQMsLHC2b2GviA+D7s2xjzF/8Zn1clABC2Hnz7i/O5f4aaS7UQ4vvgvLmigq6vmdsrYI8hvu2H3g0LNTLe4yecIhe+5dZiul73l9eUDW+KlVoVMpGwWcgwWfCh4UvRiz9CxAHjtQ/jqnSJFDGN+sOsIycAbYPyqyuCCxAgfHZ7PBoCXVzEvsThm1hAM9CwCzRk2Ro4TcS6RLcIxWqEdUW2WS1gUCdUbQR1QCPXazVJzEWQ4RrYKZVGvAnDl7lZNHHkAqdBrNAFClluuj4gaYaOQxLSCdA071hZ0ErF17N7bdt7W9uF348JMwlIcjxpmb6OecVp+GL3OwrdGXvQXJJRHldGCVRC+TN1pQrkGeku6KXge3O/otBd0wn3Q8YD0pWVWuQ8GYlUwx32Z1NO5Z4YVm97mWV/y4IrNrEkQpccIp+SqHzVG/LvTP6LOr4fqSwuGAcukyIZDAt5pzhnptO/R+RILt/i3ODP51FUb5RJuAG7h5OsKjiTf5fq/aP7F8oDxoJcLDdCARZUARQ9D2FxaJyxoq4HwUCXH8gKeYqdi1zTz1gEfEEu31dlhEXc0cGCekhxROAkxWlW+FxQPX7cJiubxIwZvns6R9d5U+gyJgOWC8+tby+AroZsFYK4CiRqYCS/gto8gAEfln8DS9fAjFHQ8MrK8YbioJiexhH0FRgbGOu62rc12CxBV4YzoNPQp2x8wgGRvbwZ4NCsGL5tQjIuVyVAl/KmChwCd8E32ztjdJsbrBEQ35DSPHx+rkmSh+O2PZciyfDduLarBEwEcbb3cAwVWeyMLSGHLeb8oamqMzCSTQkJ/OhH72Ej5ebAluPbYLNNQ5dv1gouuEhjWmBrJR1uwC+lrZT07XUQVudLH/JhZ2jTo2VQfMfI+atVJWj5z3XhmjMd4fPbYWBN7AkgXUfWfKQmOdeMIR/X42LAHLTBiFnG/NGWyO8odMXvxZorKC6VbTpOxnepwtgQnxf4ijFXY8wcqrXSEVBvoJ0LNKYHKwFTmDYVurE9DlmqObK3Fg9dQo2OBbP42gAnXY0YGdjiHDaJOnVhp2Tgu6q06KzN7VUHDCnq1FxBNrLo270VlA9s4BO4cFDZWOtMCgV53ABqDKIQjgyVo85GNuzPilLlgdg7Bn5AyHFqKVD9e6U9guSMpRZ+M3S/Qx6fvuIxjMEY+CLmQDcNQYUu8HboriAdWb90pPTzpT3SfA4H9qxz0rHF+TwAdZPrzC37KAAcyUIXcm2PKwgFaa43yioNCQttNLYLDZMl50wrUeov4gd/7pBMJjWrlzRNr+FYKnxKn9mVImI8HENplMi6T3PgvC5BZbpKPrdw4HvR31KzGWvPzU1A4TZLVlAt2TIHIB9AFUMA5Tu2FGo2uqWJjW+oyxD1wVZ7vjfQnWVn5lE+bDmJOnAgQ18J8/gwODQsYi65/DmGZv8lP9CscHOd0B2CcU1wCa3Hba9L6anU87KtIJUcZ8WY+Fl+AHmq7eXzeEMgMDPEpk6PCw3tuo5B7gc1EPSGdQ0CMiTJQX4ADrVrQ1AmNdOVww59y1QBKITPeqB/1Fja860h5zTX4NbxkjR6teCL31nHgeoU2PWtpUM1ezo2elU6s56TMjUUDqg4qzVSPJULD7yLNapGGVwUedFlxxpO4fZ8BK6hpmYEuK4GPa/UxMfqHfGIqUL4QAVPA+hAusZkAXvNrf7qamlYSMK5YjsBuoKtqEZn7dcSEpVcQuaAKyZD/bQ3ydGmSvFKdaEyW9Lt8Oxr670rJt08hicN38b96bS/3hyx7YpQ/FkdK0mGF4QPkH23pAmYmojIBKErcFpe6RP4LijNR7OniT7vsFXFXnJ7THmUpCPusjL0p4r0KqEUvYCpOQ6BVbPWOt3RfjekBwENfJnBp/yjnlNHIRLrhn3WHzeIHOjuHc6Qgmqf+t7dtAFTm0A5lFLj95Uln7Q/VsYiEJb6tXYK3YLCoKs0fA3SRkRLVkw7w4HS2DCEvc5+5vY18tHqQMlBgUI9U4jfCWcvvgj3THvk2ASmQKZa3P4g0VAvu2ILp/vsgAmK8Ajqk+di0C2NXcRDDLhl2XZ3ooYKgt2RnVFbhwj5QpOMC0BtqaFojf08jCcXlX0d2d40hE8LRoOm5wRN1Z/3qHWVuL/1SM2Zia5yN6JwKoi3Kp7lSxBwQe9MM8gCnkQWjCdghjcftT+rxfZ1dKOLlNZoCWwfKYQfj/h5oRsP+uPxuj+b9z5NptB3U7uWe5MHxnDRKkORWxqeTZePmEBB0jcLFp7T7Repd8EWLloDYZIngYZXhzTnvoMXZdlWCJSbzU6n0+1Wq9XmwknPiSH8lHK30mmkFkVtn/1eY+wlTbHJgk69HfUm88Gyv/7Z3lbnE89DcYDn9MpvU/n8fdytVofbx3b4M16v1/3pcjZIYDRfXCf7fS+Ooqj12a7V6o1up9Msl7kGe9+RqLBAxSEPorXJ9BaEZJYc3Ng8A8gDcBH5V3dDsj7T5XIwWiwmvTimq1KvVjuan2NC/XiPs4vqEb8CwefAtyrJTC/H8+223YypBXzp9ynZjEaLay9ufdarWbV9Ew+j/TfAXpcwOKwH+0+v2+63Z1w8UMTRdtBysc7ZnyPlgiDRVz8mFsZf2S/+cYBHnLNc9hcOw3CqK1+9f+/swpOKvleb9XKw2Eetdq3abYLdLHeqtVbU0y3K6iHELxE+ecErq8gsT6vb9qc/nY2uvegOPuyCcjseTYeHE6L7j4EAvgeypuucekCVklAs9PfpdPzmr5+JxCW6CBG5ROa2aw1T6BYElWanWq/VPltRFMf7yWRyXSwW8/kIwMCAmeGTDVbkvX0CPQIxmTOBVovOvEbUqEaXOul0LsIN57/egsdk7Hcp7ldkhe+41zfNV/kXYGSSM3b6Gbqk5Gzz8fGx6Q/iKgmQhLorj3uBXldrUQzY5pHtjWrPAsUOkz/CDc2trTjG+esdSxx5o0YKwfVi2VCYOJWRFu/nmeO5ss5fCd3FBibPxQ4Zhk7KBXJ1CTlcIWdA87GLXOq/hW60Jd5TrCKikdvW5wfz8+KW6KUyrb8B9rkINo1LfwYqC+GlVJnKn258MHHDVta+JFpeWwHcTaLW4l2tDcudenRdpLj3mgN1BlWOXM2jhIaTUtuREMnRbbNoMpBGImKd3bSg29qPZoneGD9RZdlBXLn24dudhnDyMkoDEsb0LA609WvjRAixFFo5/pB/lOGQ+ZydVF0x8tYVZ4EsqXH/XLcfGjslvqdSKXFj7NtNuAqJrroh8RXK45RrSiR5rFImmRwmnckjvMq3xVI5cvlPqxaySj5WFLr10iC9bDLZj9tyL2JJWFtdURmQEvwZuZyC+XIiVU2N1crJgSz04WvVCP4yQhQeRi3NRc/yqMQjoXt7qsuIgHfTTq5yOBDJ03mjTcaBlpxR0nML2x6f+2lvMQV6fmSQ5MS/eTG/xqD54eMEYR5yBgwWujMNBiW+sQFqk0KJ8o2uQ9KiwOUhZYd3YA7jnF7LH4fN0ainpJezCQJrOpFFesaBatDHmHXlYL4TOuvYObqCB8hRXF9N4wn5UgWhIcfPj5M1BOFYJ0uZJigDvGbKgye2wYSB0KIkq3R80xeFY/PJ1SavCvPbyPGdOFkDXplB+qF8SxzDjpFl57HYqU9Q7q74MUcZuJkzx0ZlcElhbqkA9wQtW05lF+/sEL2cjER3aryKnHowz8UQhC47UqROjGMaXtbMsTJKxH6Yi5ybWBvRhezZFbGWyAmVwa42Qw7dhfNGzNdPlqxYpYFm/idC05aSlaTEOV/Tx0m6ToTN7DAOUmKLYlRHPBSdTDEkBJY4qjKb2kTXcAwj3TlURvnjnu6SR/YrTPFzgfTeCJFwco6gZ2SI3DB5ruV5Nwo1GzqpmDXQ9Pznw7bU9KZd4Kk/63JioFt3s1GYdlWR6T0y6Vehq5/EHRwD3fTMiQqpCXa3a7kH3MYcQqO0rA/pveFkBs6EtnwqVaYlP1AajUJXI00ttdiU31Xqm36i6ZMjPJZV/aPcGTxtX/FlpHspebsiYPMDli0NKy3DVy/2NngH68ibf3PLQ9uruMlMDpP6Hf/hjXz5UmpoG0wbF+wV00eg0apCF6rAcL0MBlzhGYO5G2VFDulzRzKPSmRj6MqwAtEgKloaFlq3juB/mJes0IUs0Y+tmGzu1sPO1NI7Or9K1sS5rMyjZzWfU584R0cociS6MAcUeDn1HNfGjX89b+fSmsevlI1v1UBXmQxst12VdeRTnXAUugAvVcaindBOXwyZN+agV3VpBJiFr+SpPLyjzi4vPY5cZGOWoSp0leamHCXQx9FZSjMtrw++r1OcToAZnl+p/vEkVJCuz5ls3cbW6qug0FWfgCJMeULba2WT5sS2ApO28bGnZ01njmrk3MKwAmc7VqTh29JaXOgqjz0n/MbiCGzSnHXKHWX8qLLTJbQH03OH5dfYz5fBm/i8nE1vltnsMNkUB1DeCblKaN7p1uLZURsoZzFRV6EV9pXQgz7xlIKJktKRhekKiuuoWRpY4LCAFboKC5AaLlIPwUrmK0foyiXEM10jBRuc2lxMCFqBbmaTPtf5UOgqI8AXoCDfylneKboCIDyw0h9qIDU9JZlViAvpmLjDu26VApnijIJ3HI/3Kxt2XmQJSJdYmjgSxKs87fcEE770H6waDI+CJ8MN7fJGh5irgNc1OKAulL6UoyKcK4pC6x7NQudZmumj0AXhe6tdGBsld544rSsOf9LcAaIAwtlDicLSQteqSKEfhwNDo4TqruoVBMV8ZPuBPHR4F6wIZWTU/9SZnPLnVUvvDeA/nYOxMbxY5Kq1vgYUo9DV2sAYQZinkCU89B7KWOvBKxMWDnQToamkJFKFObBlnhbOUoFEnYnVzmIYlCgFz1V3TMKPu4rL6J54/ZvSfWFom+3BAYU4xMc1LMzRTGDFYRW6ZlFze3YgVe23gbuX5gNQv7f0p40Cf52QVH4c3LtStiSYFlSRiiDouHPnnF4J1ZTYU5SCrhOgQSIk3N9Ct9T59saNpffm7iwS2EyHu9xBEkAR030e5j7FStpp9yfNQBOYudwVun/9Rgnpvdlkf1dAI4DQgGE0dyuJvwPdHOiWyrBLJm6DCNUztV93QafRbsXxZLEYDWbL6bTfX49/fn6GCpL/xmNS6ZXAklR7jeaLBcuwjqNI+tU/yp1Os3IvLWqdqKKSw3PxCmijkGWNp6agB0FKFrraJZBGH3zvSEncz5oUNg1Go/mVVsLRkq9GtdMsawZACFqy5OxUfidUWov+GWEflk+DN0Nfz5BSf13r1W7nxfyq244Xy+FJVCK8BPE7gS0I6Zx/Oa62mzGptJhfe6QYsJbQha24PAHN+md8HfS3J8Qx/03EOfo2ZaDL+bZZ92eD+aRHV+H50oxKtR315svxh8T8L+AOQVuFEJ3OtKKoF33Wus9RQMK7o95i1t+cSeXrn8SdgkIfnbb90b5Vf5ryy41aK96PEtxX7Jj9RbwJUMTDS//JngAaJPv+KTOr1M7/oSVIJlMgviXlrPopNau1z6h3HS3Xm8MF4T+CfcEJ8NxZZTuPy9V6oq/t54Ppenv+NfSL1kq5syq7BKjcrbWjRFsdLMeb1TFgNYcvx79om4OnFORoQ9Mk20+pX3fFF0oDRZcVioqnp4aFaRiXuLcgJ2C4PZ8CFBplpw+juyoITw6ini13DgwBrdpMLzcpk7rThArIMZhN1+PNgTOC7Prb5ONDappUDuCuyOeasmgxYNIJKxMqlWa32qi3P1vJSsS9XmLBqtrb+eK6j6PP+gt8BaI4M1/eOAczH/3VRn5+4HT4XEsjs4gBveny8sFu8zO8rdIvRKm098vNYbOkprhA96mGVVa/7vdcgShSTLFfitYXBx5MR/TiAFFY/dT8Ola0L8dtwI+DdJJ7Vrc6gpVa1LHE0c1zFwMAO7hZTCvXdAAc0vFp9KHXntB2ynyFnrzo0SFP3XXthQLI/zCr/jsjS8bT3HLOVLN009Es1eWgmvSCJNGXV/OqQKuRXll3lYvRTDGBboas7Iap/aVArryKhiNd4ajtp4fj8es8HMTFdPHVOhypouRSbeiqoGIXlnF0fdGORjSajrcfP8tVEKZQ51oNWurIxFi0k6N2BwirfgXhcVFI6xDg/pU2Tn3oSR6iQV+xu67RWlMkmipQVv7j9aaA5MLkVIDUahZX7ljEhZ65J0ACzCNhNfZVx41C/AdpVJDXo9tOg+bI0ugRXnoQBs1xCYtXdXC0jv/q8hGhSwE6IugOT+7VKC+dZEyT7Bhz4uiaqX/lpdONhTzqiLIR2BdUQ9kEfU8zziKaimhZb8jmxuw5Pl3F2Wmzb6z0YZz7wdbQaToppVmUrKgHJ89QhVxyrBW1eZDtA52Cq7taALDqbwXsqagGV8jw5Wiad+lZ0yhG78r4kfAQa+ePTxTKyLTLXhPYlWwA15JJ/dXTTlguWyHYplwjQo6edRsLi2fDc7RMnyZy0qB6Rwlb89IwY5xi0PW1cU029uagH46uEgs/WUToZFaqkT0oSLcz+2mMgPOFQ95GEgaYNansh9DSqcvUjfoluxxJONvkv65hPuSnUILrme4Ij+MGVVx5m9dbEcxKZTkrwF++1BtmqkrfjVVdTFo8zye9eDIaB0yoOW8UU3W6sA5QKwLES6Wo8nTrp69yKRlXFzL48dMNR5evhnm/DL7MwQ4027Sa23XqRrqewUDz2OmHgOfTo+BZv4ej1j3Nl8LRZXMx7lZAZ9Nspnzc1YwkNvQMCsY0dKOLV3qFTznJul+ug5vSy5wZUcyZoaduI+Q4APQTR76w6o2kfJpmjYrB07m8y1lzQqHl4cp+Xwq/fIVSoBYNQM7LKykbdLg+wPWn0nAy+xSad0ZzDeeO2j0PaBnHmgLppZmmuo3kU8tXTuuX4Qg5qHUWChosfeZTMais7gvH3QcwnzyxAbRTHHr85iyHnjozIB/1JVEyHBy1RN/qXf4E3m4tVBdjWH4DX77aR6AgMINHq3L14MvRbeoHwZsyykr7QpvOZQcOKXjB0g+kiWR47LgKaN2Veweoa8NQOGVcsDmEKDjXkFUBkikC2zElYgSOugZqL3n1IPA9k5Jz4dPRbzMTDbUfvzdA3iSbIKskPbwGw72/FF2kd1bZur7IgIlLm9MDi5dJL3B3IrU/ytzMMnzgTB17+OJ7QckJGeuJ+LBezMWvxMXaoDFAWgxZ00oAAEnEfqVvSeK1ixNzhvZgToIokAnXlge1flbpxg75S188wdLdtEvo2VF3KBogY52ZG4p3SbcfFxx6lRk7Q4+1WOCcAG+dSncsKdpR7U6fH6BnPM00Y84PV7xQvU93St1lDA6mcIydgcnN2+c8YuwzXQGdvIEedZm75VujNZ5bp57ggJl3csrVTE1AcCMwYE5d5smBfWUapgWaDeTgpteblXmzLmQdEqr7jOHZS2EbvNLNFVEC186B6ERg8jVhYMozV3748BJ/XLjOcFTzvnPWzahkV1AfxFustkQA+AF3eaUVa6Y+t1j/VwF3ykoFmqe6r9JnD6GP0PcdnJx1FTwZT4l+gKbQpPGPIJRqV/RHhbTpdqp2MuZFprw2UFCI2xWaBpfwzryZ7hIjU4MhBn1yvKJsdKvC2nJWjKpWCtT+B9eymd9sMGUvZDvE9ZMHiHl/vw5Wic0aG3LmEtHTyiRm5Wlzd0yTvZ+oM3KRtnxMJWJikTPrd/UpJ6ub7IfzfmYAQP8O3QdH6RWkmCoVXa77ELOUR5cK8jpnA5kXkaMKXYc91lKqildQTTQEU4iZAFMUwqvwn4TvKkAiHJUohUqrsnSReActS586DxqDdCBndsdSWbGoJJkULb1YIDyKkBJQ6bXepY2B5idIuXJUhf3aUO56EgO0fkk5O0vkAFHvCjqEqOaB9cXKyOdIyUBYyfd72l3tPlT6athcN23lAjIvOiPgjUffiyjqzcfIDASGaRlbqi0hkYsKXfc7lREYtqjshWxoCnQ7uqPLkZ6KgtR0JCW6iRCVe+2MoTVmYCWdjvpXARJqsvvOPLAHGSneoKVmSXNvmKyvNt9pZPPWIudvqdBZ7Xu1rU0zHRhI3x7RVEBaqGpYVa5Ho411RN515yOFjVz/cgqyZk9LF8gNpVYBINZzf73+Gd6OKLRvtkM4cDZWfRUkLEoYLVXP9qJweY+3QRqR1EiARaD+NHXcJ81bik5KT4HkyMr+jlXXjBCe3ela0Ro5de+5zJu6z9ZY68P4WogAuta97YTWrncXp43FSzTuY7bvdWztiqkg+/B9+NawpvhcgQRKmMr0EZeo1BxZ4CQDWdC1vZ6Qe1FXTGdAGRue1mhNK+Twcbx4MO1X2rzMREzt9YW/Ne/tEL8LX9vhUCp3u7lKPAQ18zhR7MMXhT+markI38Sfh6nuqYfgE2voOpo4BfQCR/uiBdLcE79F/o5QYehKl4b4v3oDJgatDTrPvO1+xuE7bviJUHG9W0huEU62Tz1pTxknwMGtP4rTUzGiLD21CKjiAlvVDMNtuWRsX7lzb4+ByjrXpS6PQaGded5UQvQETP9E36W3QSvf3RP/LLzhwPwH/8F/8B/8T8P/AaGCTV+H45FlAAAAAElFTkSuQmCC;" vertex="1" parent="2">
                    <mxGeometry x="55" y="150" width="168.4" height="150" as="geometry"/>
                </mxCell>
                <mxCell id="7" value="Play Game" style="rounded=1;whiteSpace=wrap;html=1;" vertex="1" parent="2">
                    <mxGeometry x="55" y="350" width="110" height="40" as="geometry"/>
                </mxCell>
                <mxCell id="9" value="go to menu" style="rounded=1;whiteSpace=wrap;html=1;" vertex="1" parent="2">
                    <mxGeometry x="50" y="410" width="110" height="40" as="geometry"/>
                </mxCell>
            </root>
        </mxGraphModel>
    </diagram>
</mxfile>